<svg xmlns="http://www.w3.org/2000/svg" xmlns:xlink="http://www.w3.org/1999/xlink" preserveAspectRatio="xMidYMid" width="1920" height="500" viewBox="0 0 1920 500">
  <defs>
    <style>
      .cls-1, .cls-2 {
        fill: #ff6d6d;
        fill-rule: evenodd;
      }

      .cls-1 {
        filter: url(#filter-chain-1);
      }

      .cls-2 {
        filter: url(#filter-chain-2);
      }
    </style>

    <filter id="filter-chain-1" filterUnits="userSpaceOnUse">
      <feOffset dx="2.828" dy="2.828" in="SourceAlpha"/>
      <feGaussianBlur stdDeviation="7" result="dropBlur"/>
      <feFlood flood-opacity="0.55"/>
      <feComposite operator="in" in2="dropBlur" result="dropShadowComp"/>
      <feComposite in="SourceGraphic" result="shadowed"/>
      <feFlood flood-color="#91b9ff"/>
      <feComposite operator="in" in2="SourceGraphic"/>
      <feBlend in2="shadowed" result="solidFill"/>
      <feOffset dx="2.121" dy="2.121" in="SourceAlpha"/>
      <feGaussianBlur stdDeviation="10.954" result="innerShadowBlur"/>
      <feFlood flood-opacity="0.35"/>
      <feComposite operator="out" in2="innerShadowBlur"/>
      <feComposite operator="in" in2="SourceAlpha"/>
      <feBlend mode="multiply" in2="solidFill" result="innerShadow"/>
    </filter>
    <filter id="filter-chain-2" filterUnits="userSpaceOnUse">
      <feOffset dx="2.828" dy="2.828" in="SourceAlpha"/>
      <feGaussianBlur stdDeviation="7.348" result="dropBlur"/>
      <feFlood flood-opacity="0.49"/>
      <feComposite operator="in" in2="dropBlur" result="dropShadowComp"/>
      <feComposite in="SourceGraphic" result="shadowed"/>
      <feFlood flood-color="#ff6d6d"/>
      <feComposite operator="in" in2="SourceGraphic"/>
      <feBlend in2="shadowed" result="solidFill"/>
      <feOffset dx="2.121" dy="2.121" in="SourceAlpha"/>
      <feGaussianBlur stdDeviation="10.954" result="innerShadowBlur"/>
      <feFlood flood-opacity="0.35"/>
      <feComposite operator="out" in2="innerShadowBlur"/>
      <feComposite operator="in" in2="SourceAlpha"/>
      <feBlend mode="multiply" in2="solidFill" result="innerShadow"/>
    </filter>
  </defs>
  <path d="M21.469,99.211 C21.469,99.211 169.527,59.364 332.172,72.211 C470.652,83.150 558.118,144.362 712.222,155.415 C846.876,165.073 896.120,121.366 1133.289,141.286 C1310.687,156.186 1307.193,197.548 1473.792,202.626 C1653.857,208.114 1658.807,130.395 1824.248,166.426 C1998.166,204.304 1971.000,225.000 1971.000,225.000 C1971.000,225.000 1789.489,158.346 1735.000,170.000 C1483.454,223.799 1578.709,266.798 1142.000,198.000 C839.654,150.369 798.551,252.654 298.000,176.000 C90.423,144.212 -59.000,219.000 -59.000,219.000 L-48.000,119.000 L21.469,99.211 Z" class="cls-1"/>
  <path d="M0.000,162.000 C0.000,162.000 154.978,115.452 317.928,123.549 C456.668,130.443 545.882,189.078 700.243,195.631 C835.122,201.356 883.070,156.231 1120.719,169.225 C1298.476,178.943 1296.190,220.389 1462.866,220.605 C1643.015,220.839 1646.075,141.047 1812.117,174.198 C1917.456,195.229 1924.000,210.000 1924.000,210.000 L1924.000,220.000 C1924.000,220.000 1879.291,195.192 1811.000,183.000 C1648.445,153.978 1618.746,233.494 1463.000,241.000 C1318.051,247.986 1300.737,215.587 1119.000,206.000 C912.742,195.119 799.170,251.787 699.000,249.000 C510.140,243.745 514.152,210.343 317.000,193.000 C190.397,181.863 0.000,240.000 0.000,240.000 L0.000,162.000 Z" class="cls-2"/>
</svg>
